# xmcd
#
# Track frame offsets:
#	150
#	20076
#	37737
#	51959
#	68418
#	82438
#	100399
#	117707
#	129223
#	142014
#	156703
#
# Disc length: 2287 seconds
#
# Revision: 1
# Processed by: cddbd v1.5.2PL0 Copyright (c) Steve Scherf et al.
# Submitted via: audiograbber 1.83.01
#
DISCID=a108ed0b
DTITLE=Kelby Bruno - Captivated
DYEAR=2000
DGENRE=Country
TTITLE0=How Long
TTITLE1=Fall Down
TTITLE2=Heaven
TTITLE3=Hide Me
TTITLE4=High On A Hill
TTITLE5=He's Still Callin'
TTITLE6=Paint A Picture
TTITLE7=Hold On
TTITLE8=More Of You
TTITLE9=Wonderful You
TTITLE10=Faithful Friends
EXTD=
EXTT0=
EXTT1=
EXTT2=
EXTT3=
EXTT4=
EXTT5=
EXTT6=
EXTT7=
EXTT8=
EXTT9=
EXTT10=
PLAYORDER=
